<svg xmlns="http://www.w3.org/2000/svg" viewBox="0 0 180.9 180.9"><defs><style>.cls-1{fill:#fff;}.cls-2{fill:#bbdcff;}.cls-3{fill:#6671e5;}.cls-4{isolation:isolate;}</style></defs><title>kusd</title><g id="Layer_2" data-name="Layer 2"><g id="kUSD"><circle class="cls-1" cx="90.79" cy="89.79" r="87.79"/><path class="cls-2" d="M55.79,51.37,38.08,33.62a78,78,0,0,0-8,8.55L55.94,68V21.28h-.1Z"/><path class="cls-2" d="M13.09,90.45a76.94,76.94,0,0,1,5.45-28.56A77.09,77.09,0,0,0,20,122.38L55.79,86.26v73.35h.1v-90l-40.2,40.56A77.36,77.36,0,0,1,13.09,90.45Z"/><path class="cls-3" d="M90.45,0A90.45,90.45,0,1,0,180.9,90.45,90.45,90.45,0,0,0,90.45,0ZM69.58,16h0a77.12,77.12,0,0,1,39.67-.56h.13L84,40.86,69.59,55.25h0ZM55.94,68v91.64h-.1A77.43,77.43,0,0,1,18.59,61.89l.27-.69c.3-.71.61-1.42.92-2.13l.52-1.19q.43-.92.87-1.81t.76-1.49l.79-1.48c.38-.69.77-1.37,1.19-2l.51-.87c.7-1.19,1.46-2.29,2.23-3.4q.68-1,1.39-2l.9-1.19c.38-.5.77-1,1.19-1.5A77.55,77.55,0,0,1,55.79,21.33h.1Zm66.74,92.83-.77.36-2,.88-1.87.74-1.19.44A77.19,77.19,0,0,1,69.61,165h0V81.83l69.09,69.09a77.49,77.49,0,0,1-16.11,9.89Zm25.71-19L75,68.37,123,20.3a77.28,77.28,0,0,1,25.3,121.39Z"/><g class="cls-4"><path class="cls-3" d="M102.08,57.86V70.43a5,5,0,0,0,1,3.29,4.05,4.05,0,0,0,5.63,0,5,5,0,0,0,1-3.29V57.86h5.27V70.43a10.35,10.35,0,0,1-1.2,5.19,7.8,7.8,0,0,1-3.28,3.17,10.17,10.17,0,0,1-4.7,1.06,9.82,9.82,0,0,1-4.62-1A7.43,7.43,0,0,1,98,75.63a10.89,10.89,0,0,1-1.14-5.2V57.86Z"/><path class="cls-3" d="M133.19,76.68A6.19,6.19,0,0,1,130.6,79a9.11,9.11,0,0,1-4.14.86,9.75,9.75,0,0,1-6-1.79,6.47,6.47,0,0,1-2.59-5h5.6a3,3,0,0,0,.88,1.94,2.7,2.7,0,0,0,1.92.71,2.23,2.23,0,0,0,1.6-.55,1.94,1.94,0,0,0,.58-1.48,1.91,1.91,0,0,0-.54-1.39,4.22,4.22,0,0,0-1.34-.91q-.8-.35-2.22-.85A27.21,27.21,0,0,1,121,69.18a6.21,6.21,0,0,1-2.25-2,6.41,6.41,0,0,1,0-6.76,6.26,6.26,0,0,1,2.72-2.17,9.94,9.94,0,0,1,4-.75,8.94,8.94,0,0,1,5.77,1.72A6.58,6.58,0,0,1,133.67,64H128a2.93,2.93,0,0,0-.79-1.71,2.31,2.31,0,0,0-1.71-.63,2.2,2.2,0,0,0-1.49.49,1.81,1.81,0,0,0-.57,1.45,1.84,1.84,0,0,0,.51,1.31,3.86,3.86,0,0,0,1.28.88q.77.34,2.22.86a24.44,24.44,0,0,1,3.42,1.4,6.54,6.54,0,0,1,2.28,2,5.76,5.76,0,0,1,1,3.45A6,6,0,0,1,133.19,76.68Z"/><path class="cls-3" d="M155.21,74.38a9.6,9.6,0,0,1-3.94,3.86,12.57,12.57,0,0,1-6.05,1.39H137V57.86h8.22a12.79,12.79,0,0,1,6.07,1.35A9.45,9.45,0,0,1,155.21,63a12.43,12.43,0,0,1,0,11.35Zm-5.67-1.09a6,6,0,0,0,1.71-4.59,6,6,0,0,0-1.71-4.59,6.66,6.66,0,0,0-4.79-1.63h-2.49V74.92h2.49A6.66,6.66,0,0,0,149.54,73.29Z"/></g></g></g></svg>