<svg xmlns="http://www.w3.org/2000/svg" viewBox="0 0 389.49 69.62"><defs><style>.cls-1{fill:#fff;}.cls-2{isolation:isolate;}</style></defs><title>kusd-testnet</title><g id="Layer_2" data-name="Layer 2"><g id="Layer_1-2" data-name="Layer 1"><g id="Layer_2-2" data-name="Layer 2"><g id="kUSD"><path class="cls-1" d="M21.48,19.77l-6.81-6.83a30.72,30.72,0,0,0-3.06,3.29l9.93,9.93v-18h0Z"/><path class="cls-1" d="M5,34.81a29.59,29.59,0,0,1,2.1-11,29.65,29.65,0,0,0,.54,23.28l13.79-13.9V61.42h0V26.78L6,42.39A29.82,29.82,0,0,1,5,34.81Z"/><path class="cls-1" d="M34.82,0a34.81,34.81,0,1,0,34.8,34.82h0A34.81,34.81,0,0,0,34.82,0Zm-8,6.15h0A29.63,29.63,0,0,1,42,5.94h.05l-9.77,9.79-5.54,5.54h0Zm-5.25,20V61.42h0A29.8,29.8,0,0,1,7.16,23.81l.11-.27.35-.82.2-.46.33-.7.3-.56.3-.57c.15-.27.3-.53.46-.79l.2-.33c.27-.46.56-.88.86-1.31l.54-.75.35-.46.46-.58a29.91,29.91,0,0,1,9.87-8h0ZM47.22,61.88l-.3.14-.78.34-.72.28-.46.17a29.66,29.66,0,0,1-18.16.67h0v-32l26.58,26.6a29.69,29.69,0,0,1-6.2,3.81Zm9.89-7.33L28.86,26.31l18.5-18.5A29.73,29.73,0,0,1,57.1,54.52Z"/><path class="cls-1" d="M39.29,22.27V27.1a1.94,1.94,0,0,0,.37,1.27,1.55,1.55,0,0,0,2.17,0,1.94,1.94,0,0,0,.37-1.27V22.27h2V27.1a4.08,4.08,0,0,1-.46,2,3,3,0,0,1-1.26,1.22,3.9,3.9,0,0,1-1.81.41,3.78,3.78,0,0,1-1.78-.4,2.86,2.86,0,0,1-1.18-1.23,4.21,4.21,0,0,1-.44-2V22.27Z"/><path class="cls-1" d="M51.26,29.51a2.33,2.33,0,0,1-1,.89,3.5,3.5,0,0,1-1.59.33A3.79,3.79,0,0,1,46.35,30a2.47,2.47,0,0,1-1-1.92h2.16a1.18,1.18,0,0,0,.34.75,1,1,0,0,0,.74.27.87.87,0,0,0,.62-.21.77.77,0,0,0,.23-.57.74.74,0,0,0-.21-.53,1.64,1.64,0,0,0-.52-.35l-.85-.33a10.42,10.42,0,0,1-1.3-.53,2.42,2.42,0,0,1-.86-.76,2.48,2.48,0,0,1,0-2.6,2.4,2.4,0,0,1,1-.84,3.82,3.82,0,0,1,1.53-.29,3.46,3.46,0,0,1,2.22.66,2.54,2.54,0,0,1,.93,1.82H49.25a1.09,1.09,0,0,0-.3-.66.9.9,0,0,0-.66-.24.84.84,0,0,0-.57.19.72.72,0,0,0-.22.56.7.7,0,0,0,.2.5,1.49,1.49,0,0,0,.49.34c.2.09.48.2.85.33a10.76,10.76,0,0,1,1.32.54,2.53,2.53,0,0,1,.88.78,2.24,2.24,0,0,1,.37,1.33A2.28,2.28,0,0,1,51.26,29.51Z"/><path class="cls-1" d="M59.73,28.62a3.7,3.7,0,0,1-1.52,1.49,4.83,4.83,0,0,1-2.33.53H52.73V22.27h3.16a4.94,4.94,0,0,1,2.33.52,3.63,3.63,0,0,1,1.51,1.47,4.81,4.81,0,0,1,0,4.37Zm-2.18-.42a2.32,2.32,0,0,0,.66-1.77,2.32,2.32,0,0,0-.66-1.77A2.58,2.58,0,0,0,55.71,24h-1v4.79h1A2.55,2.55,0,0,0,57.55,28.2Z"/></g><g id="mUSD"><path class="cls-1" d="M246.1,18.86v1.72h-9.2V50.8h-2.08V20.58h-9.15V18.86Z"/><path class="cls-1" d="M252.62,20.58V34h12.91v1.63H252.62V49.08h14.27V50.8H250.58V18.86h16.31v1.72Z"/><path class="cls-1" d="M290.36,46.88a7.37,7.37,0,0,1-3,3.06,10.13,10.13,0,0,1-5.12,1.18A11.78,11.78,0,0,1,277,50a9.57,9.57,0,0,1-3.67-3,8.56,8.56,0,0,1-1.59-4.12h2.13a8.13,8.13,0,0,0,1.15,3,7.45,7.45,0,0,0,2.74,2.58,8.8,8.8,0,0,0,4.44,1,6.89,6.89,0,0,0,5.16-1.86,6.38,6.38,0,0,0,1.81-4.6A6.09,6.09,0,0,0,288,39.11a7.64,7.64,0,0,0-2.79-2.22,34.16,34.16,0,0,0-4.51-1.63,37.85,37.85,0,0,1-4.85-1.74,7.83,7.83,0,0,1-3-2.52,7.52,7.52,0,0,1-1.25-4.53,7.37,7.37,0,0,1,2.4-5.66,9.45,9.45,0,0,1,6.66-2.22,10.12,10.12,0,0,1,6.82,2.15,8.9,8.9,0,0,1,3.1,5.14h-2.17A7.21,7.21,0,0,0,286,22a7.74,7.74,0,0,0-5.35-1.74,7.42,7.42,0,0,0-5,1.61,5.66,5.66,0,0,0-1.88,4.55A5.74,5.74,0,0,0,274.86,30a7.19,7.19,0,0,0,2.7,2.13,33.91,33.91,0,0,0,4.37,1.56,34.68,34.68,0,0,1,4.94,1.79A8.23,8.23,0,0,1,290,38.16a7.88,7.88,0,0,1,1.29,4.76A8.65,8.65,0,0,1,290.36,46.88Z"/><path class="cls-1" d="M315.14,18.86v1.72h-9.2V50.8h-2.08V20.58h-9.15V18.86Z"/><path class="cls-1" d="M342.37,50.8h-2l-18.7-28.45V50.8h-2V18.9h2l18.66,28.45V18.9h2Z"/><path class="cls-1" d="M351.75,20.58V34h12.91v1.63H351.75V49.08H366V50.8h-16.3V18.86H366v1.72Z"/><path class="cls-1" d="M389.49,18.86v1.72h-9.2V50.8h-2.08V20.58H369V18.86Z"/><g class="cls-2"><path class="cls-1" d="M110.81,51l-9.15-11.32V51H96.39V16.84h5.27v19.6l9-10.86H117L106,38.24,117.32,51Z"/><path class="cls-1" d="M128.09,18.42V37.78q0,4.34,1.92,6.47a7.84,7.84,0,0,0,10.72,0q1.91-2.13,1.91-6.47V18.42h5.27V37.78q0,6.7-3.46,10.14a12.39,12.39,0,0,1-9.15,3.44,12.18,12.18,0,0,1-9.06-3.44q-3.42-3.44-3.42-10.14V18.42Z"/><path class="cls-1" d="M176.65,46.81a8.47,8.47,0,0,1-3.51,3.31,12.21,12.21,0,0,1-5.77,1.24,14.51,14.51,0,0,1-6-1.17,10.4,10.4,0,0,1-4.21-3.31,9.33,9.33,0,0,1-1.8-4.9H161a5.75,5.75,0,0,0,1.82,3.65,5.92,5.92,0,0,0,4.28,1.53,5.06,5.06,0,0,0,3.72-1.3,4.48,4.48,0,0,0,1.31-3.32,4.26,4.26,0,0,0-1-2.89,6.79,6.79,0,0,0-2.4-1.78c-1-.43-2.27-.92-3.93-1.48a34.51,34.51,0,0,1-5-1.94,9,9,0,0,1-3.25-2.82,8,8,0,0,1-1.34-4.85,8,8,0,0,1,5-7.69A13.23,13.23,0,0,1,165.84,18a12.16,12.16,0,0,1,7.93,2.4,9.09,9.09,0,0,1,3.35,6.29h-5.69a5.53,5.53,0,0,0-1.73-3.17,5.42,5.42,0,0,0-3.86-1.31,5.32,5.32,0,0,0-3.56,1.13,4,4,0,0,0-1.34,3.25,4.07,4.07,0,0,0,.93,2.75,6.23,6.23,0,0,0,2.33,1.71c.94.42,2.23.91,3.86,1.46a34.76,34.76,0,0,1,5.06,2,9.29,9.29,0,0,1,3.33,2.89,8.44,8.44,0,0,1,1.36,5A8.94,8.94,0,0,1,176.65,46.81Z"/><path class="cls-1" d="M211.38,43.3A13.94,13.94,0,0,1,205.51,49a19.58,19.58,0,0,1-9.22,2h-10.9V18.42h10.9a19.7,19.7,0,0,1,9.22,2,13.78,13.78,0,0,1,5.87,5.66,17.53,17.53,0,0,1,2,8.59A17.68,17.68,0,0,1,211.38,43.3Zm-6.49-.07q3.13-3,3.14-8.55t-3.14-8.55q-3.15-3-9-3.05h-5.22v23.2h5.22Q201.75,46.28,204.89,43.23Z"/></g></g></g></g></g></svg>