<?xml version="1.0" encoding="UTF-8" standalone="no"?>
<svg
   xmlns:dc="http://purl.org/dc/elements/1.1/"
   xmlns:cc="http://creativecommons.org/ns#"
   xmlns:rdf="http://www.w3.org/1999/02/22-rdf-syntax-ns#"
   xmlns:svg="http://www.w3.org/2000/svg"
   xmlns="http://www.w3.org/2000/svg"
   id="svg8"
   version="1.1"
   viewBox="0 0 67.199181 17.26115"
   height="34.26115mm"
   width="300.199181mm">
  <defs
     id="defs2" />
  <metadata
     id="metadata5">
    <rdf:RDF>
      <cc:Work
         rdf:about="">
        <dc:format>image/svg+xml</dc:format>
        <dc:type
           rdf:resource="http://purl.org/dc/dcmitype/StillImage" />
        <dc:title />
      </cc:Work>
    </rdf:RDF>
  </metadata>
  <g
     transform="translate(-65.534384,-127.94872)"
     id="layer1">
    <path
       d="m 74.165094,127.94872 c -4.75906,0 -8.63071,3.87191 -8.63071,8.63044 0,4.7588 3.87165,8.63071 8.63071,8.63071 4.75879,0 8.63018,-3.87191 8.63018,-8.63097 0,-4.75827 -3.87139,-8.63018 -8.63018,-8.63018 z m -0.0201,16.06047 c -0.68421,0 -1.46685,-0.0947 -1.99602,-0.26908 v -7.95761 l 6.61353,6.60347 c -1.27053,1.01494 -2.86862,1.62322 -4.61751,1.62322 z m -6.82519,-4.28837 3.50626,-3.5388 v 7.09057 c -1.5875,-0.74427 -2.78078,-2.00369 -3.50626,-3.55177 z m 6.82519,-10.57222 c 0.63103,0 1.23322,0.0796 1.81874,0.22834 l -3.81476,3.8399 v -3.79889 c 0.52917,-0.1741 1.31181,-0.26935 1.99602,-0.26935 z m 7.45014,7.4303 c 0,1.91743 -0.73025,3.66686 -1.92617,4.98607 l -7.06332,-7.06358 4.63868,-4.6818 c 2.56381,1.17289 4.35081,3.76078 4.35081,6.75931 z m -10.76907,-3.74227 -1.76134,-1.76133 c 0.52441,-0.47599 0.96759,-0.87789 1.76134,-1.18957 z m -4.09126,3.74227 c 0,-1.7481 0.60855,-3.35677 1.62296,-4.62704 l 2.55376,2.55376 -3.93118,3.96743 c -0.15955,-0.60484 -0.24554,-1.23957 -0.24554,-1.89415 z"
       id="path7814"
       style="fill:#ffffff;stroke-width:0.26458332" />
    <path
       d="m 93.904803,133.79893 h -1.613106 l -2.209254,2.73527 v -2.73527 h -1.23613 v 6.11928 h 1.23613 v -2.71773 l 2.218021,2.71773 h 1.604339 l -2.656365,-3.05087 z"
       style="font-style:normal;font-variant:normal;font-weight:600;font-stretch:normal;font-size:8.76688004px;font-family:Poppins;-inkscape-font-specification:'Poppins Semi-Bold';font-variant-ligatures:normal;font-variant-caps:normal;font-variant-numeric:normal;font-feature-settings:normal;text-align:start;letter-spacing:1.32291663;writing-mode:lr-tb;text-anchor:start;fill:#ffffff;stroke-width:0.26458332"
       id="path829" />
    <path
       d="m 95.734692,136.84104 c 0,1.84104 1.393934,3.13854 3.129776,3.13854 1.735842,0 3.129772,-1.2975 3.129772,-3.13854 0,-1.83228 -1.38516,-3.12978 -3.129772,-3.12978 -1.735842,0 -3.129776,1.2975 -3.129776,3.12978 z m 4.997118,0 c 0,1.21859 -0.762715,2.00761 -1.867342,2.00761 -1.104627,0 -1.876112,-0.78902 -1.876112,-2.00761 0,-1.2186 0.771485,-1.99885 1.876112,-1.99885 1.104627,0 1.867342,0.78025 1.867342,1.99885 z"
       style="font-style:normal;font-variant:normal;font-weight:600;font-stretch:normal;font-size:8.76688004px;font-family:Poppins;-inkscape-font-specification:'Poppins Semi-Bold';font-variant-ligatures:normal;font-variant-caps:normal;font-variant-numeric:normal;font-feature-settings:normal;text-align:start;letter-spacing:1.32291663;writing-mode:lr-tb;text-anchor:start;fill:#ffffff;stroke-width:0.26458332"
       id="path831" />
    <path
       d="m 111.12982,133.79893 -1.10463,4.68151 -1.16599,-4.68151 h -1.39393 l -1.23613,4.72535 -1.17477,-4.72535 h -1.31503 l 1.73584,6.11928 h 1.4027 l 1.2186,-4.26947 1.18353,4.26947 h 1.4027 l 1.77091,-6.11928 z"
       style="font-style:normal;font-variant:normal;font-weight:600;font-stretch:normal;font-size:8.76688004px;font-family:Poppins;-inkscape-font-specification:'Poppins Semi-Bold';font-variant-ligatures:normal;font-variant-caps:normal;font-variant-numeric:normal;font-feature-settings:normal;text-align:start;letter-spacing:1.32291663;writing-mode:lr-tb;text-anchor:start;fill:#ffffff;stroke-width:0.26458332"
       id="path833" />
    <path
       d="m 116.10442,137.82293 0.86792,-2.55116 0.87669,2.55116 z m 2.45472,2.09528 h 1.30627 l -2.15665,-6.13681 h -1.46407 l -2.16542,6.13681 h 1.30626 l 0.39451,-1.14846 h 2.38459 z"
       style="font-style:normal;font-variant:normal;font-weight:600;font-stretch:normal;font-size:8.76688004px;font-family:Poppins;-inkscape-font-specification:'Poppins Semi-Bold';font-variant-ligatures:normal;font-variant-caps:normal;font-variant-numeric:normal;font-feature-settings:normal;text-align:start;letter-spacing:1.32291663;writing-mode:lr-tb;text-anchor:start;fill:#ffffff;stroke-width:0.26458332"
       id="path835" />
    <path
       d="m 122.04816,133.79893 v 6.11928 h 3.19992 v -0.93805 h -1.96379 v -5.18123 z"
       style="font-style:normal;font-variant:normal;font-weight:600;font-stretch:normal;font-size:8.76688004px;font-family:Poppins;-inkscape-font-specification:'Poppins Semi-Bold';font-variant-ligatures:normal;font-variant-caps:normal;font-variant-numeric:normal;font-feature-settings:normal;text-align:start;letter-spacing:1.32291663;writing-mode:lr-tb;text-anchor:start;fill:#ffffff;stroke-width:0.26458332"
       id="path837" />
    <path
       d="m 128.97257,137.82293 0.86792,-2.55116 0.87669,2.55116 z m 2.45473,2.09528 h 1.30626 l -2.15665,-6.13681 h -1.46407 l -2.16542,6.13681 h 1.30627 l 0.39451,-1.14846 h 2.38459 z"
       style="font-style:normal;font-variant:normal;font-weight:600;font-stretch:normal;font-size:8.76688004px;font-family:Poppins;-inkscape-font-specification:'Poppins Semi-Bold';font-variant-ligatures:normal;font-variant-caps:normal;font-variant-numeric:normal;font-feature-settings:normal;text-align:start;letter-spacing:1.32291663;writing-mode:lr-tb;text-anchor:start;fill:#ffffff;stroke-width:0.26458332"
       id="path839" />
  </g>
</svg>
