<?xml version="1.0" encoding="UTF-8"?>
<svg viewBox="0 0 175.19 103.24" xmlns="http://www.w3.org/2000/svg">
<defs>
<style>.cls-1{fill:#fff;}</style>
</defs>
<title>kWallet Logo</title>
<g data-name="Layer 1">
<path class="cls-1" d="M84.35,0A32.62,32.62,0,1,0,117,32.62h0A32.66,32.66,0,0,0,84.35,0Zm-.08,60.7a26.48,26.48,0,0,1-7.54-1V29.61l25,25A27.83,27.83,0,0,1,84.27,60.7ZM58.48,44.49,71.73,31.12v26.8A27.47,27.47,0,0,1,58.48,44.49Zm25.8-40a27.75,27.75,0,0,1,6.87.86L76.73,19.91V5.55a26.53,26.53,0,0,1,7.54-1Zm28.16,28.08a28,28,0,0,1-7.28,18.85l-26.7-26.7L96,7.07a28.12,28.12,0,0,1,16.44,25.55ZM71.73,18.47,65,11.82a20,20,0,0,1,6.66-4.5ZM56.27,32.62A27.94,27.94,0,0,1,62.4,15.13L72,24.78l-14.86,15A28,28,0,0,1,56.27,32.62Z"/>
<path class="cls-1" d="M11.2,103.24,5.67,95.39v7.85H0V78.72H5.67V92.17l5.53-7.42h6.66L10.4,94,18,103.24Z"/>
<path class="cls-1" d="m56.88 79.82l-5.6 23.42h-7l-3.76-15.67-3.78 15.67h-7l-5.6-23.42h6.16l3 17 4.11-17h6.2l4.11 17 3-17z"/>
<path class="cls-1" d="M79.35,99H70.57l-1.46,4.27h-6L71.73,80h6.53l8.58,23.26h-6Zm-1.46-4.31L75,86,72,94.66Z"/>
<path class="cls-1" d="M99.65,98.9h7.55v4.34H94V79.82h5.67Z"/>
<path class="cls-1" d="M120.46,98.9H128v4.34H114.79V79.82h5.67Z"/>
<path class="cls-1" d="M141.27,84.32v4.9h7.92V93.5h-7.92v5.2h8.91v4.54H135.6V79.82h14.58v4.51Z"/>
<path class="cls-1" d="m175.19 79.82v4.51h-6.36v18.92h-5.7v-18.93h-6.29v-4.5z"/>
</g>
</svg>
