<?xml version="1.0" encoding="utf-8"?>
<!-- Generator: Adobe Illustrator 22.1.0, SVG Export Plug-In . SVG Version: 6.00 Build 0)  -->
<svg version="1.1" id="Layer_1" xmlns="http://www.w3.org/2000/svg" xmlns:xlink="http://www.w3.org/1999/xlink" x="0px" y="0px"
	 viewBox="0 0 1197.9 131.1" style="enable-background:new 0 0 1197.9 131.1;" xml:space="preserve">
<style type="text/css">
	.st0{fill:#FFFFFF;}
	.st1{font-family:'Poppins-Regular';}
	.st2{font-size:132.646px;}
</style>
<title>kWallet</title>
<g id="Layer_2_1_">
	<g id="mUSD">
		<path class="st0" d="M43.2,72.7l40.2,48.1H60.3L25.6,77.6v43.2H6.7V26.5h18.9v42.6l35.3-42.6h22.5L43.2,72.7z"/>
		<path class="st0" d="M180.8,31.3c7.3,4.3,12.8,9.7,17,17c4.3,7.9,6.1,16.4,6.1,25s-1.8,17-6.1,25c-4.3,7.3-9.7,13.4-17,17
			c-15.2,7.9-32.9,7.9-48.1,0c-7.3-4.3-12.8-10.3-17-17c-4.3-7.9-6.1-16.4-6.1-25s1.8-17,6.1-25c4.3-7.3,9.7-12.8,17-17
			C147.3,23.4,165.6,23.4,180.8,31.3z M141.9,46.6c-4.3,2.4-7.9,6.1-9.7,11c-2.4,4.9-3.7,10.3-3.7,15.8s1.2,11.6,3.7,16.4
			c2.4,4.3,5.5,7.9,9.7,11c9.1,4.9,20.1,4.9,29.2,0c4.3-2.4,7.9-6.1,9.7-11c2.4-4.9,3.7-11,3.7-16.4s-1.2-11.6-3.7-16.4
			c-1.8-4.3-5.5-7.9-9.7-11C161.9,41.7,151,41.7,141.9,46.6L141.9,46.6z"/>
		<path class="st0" d="M360.4,26.5l-23.1,94.3h-23.1l-17.7-68.2l-17.7,68.2h-23.1l-23.1-94.3h20.7l14.6,73l18.9-73h20.7l18.9,73
			l14.6-73L360.4,26.5z"/>
		<path class="st0" d="M449.2,101.9h-37.7l-6.7,18.9h-20.1l34.7-93.1h21.3l34.7,93.1h-20.1L449.2,101.9z M444.4,87.3l-14-39.6
			l-14,39.6H444.4z"/>
		<path class="st0" d="M523.5,106.2h31.7v14.6h-50.5V26.5h18.9L523.5,106.2z"/>
		<path class="st0" d="M642.2,101.9h-37.7l-6.7,18.9h-20.1l34.7-93.1h21.3l34.7,93.1h-20.1L642.2,101.9z M637.3,87.3l-14-39.6
			l-14,39.6H637.3z"/>
	</g>
</g>
<text transform="matrix(1 0 0 1 713.5732 120.8937)" class="st0 st1 st2">WALLET</text>
</svg>
