<?xml version="1.0" encoding="utf-8"?>
<!-- Generator: Adobe Illustrator 21.0.0, SVG Export Plug-In . SVG Version: 6.00 Build 0)  -->
<svg version="1.1" id="Layer_1" xmlns="http://www.w3.org/2000/svg" xmlns:xlink="http://www.w3.org/1999/xlink" x="0px" y="0px"
	 viewBox="0 0 675.1 165.9" style="enable-background:new 0 0 675.1 165.9;" xml:space="preserve">
<style type="text/css">
	.st0{enable-background:new    ;}
	.st1{fill:#000000;}
</style>
<title>kWallet</title>
<g id="Layer_2">
	<g id="Layer_1-2">
		<g class="st0">
			<path class="st1" d="M245.6,110L231,89.2V110h-15V44.9h15v35.7l14.7-19.7h17.7l-19.8,24.6l20.2,24.6h-18.2V110z"/>
			<path class="st1" d="M366.1,47.8L351.2,110h-18.7l-9.9-41.6l-10,41.6H294l-14.9-62.2h16.4l8,45.1l10.9-45.1h16.5l10.9,45.1
				l8.1-45.1C349.9,47.8,366.1,47.8,366.1,47.8z"/>
			<path class="st1" d="M424.9,98.7h-23.3l-3.9,11.4h-15.8l22.8-61.8H422l22.8,61.8h-16L424.9,98.7z M421,87.2l-7.7-22.9l-7.8,22.9
				H421z"/>
			<path class="st1" d="M478,98.5h20V110h-35.1V47.8h15v50.7H478z"/>
			<path class="st1" d="M532.3,98.5h20.1V110h-35.1V47.8h15V98.5z"/>
			<path class="st1" d="M586.7,59.8v13h21v11.4h-21V98h23.7v12h-38.7V47.8h38.7v12H586.7z"/>
			<path class="st1" d="M676,47.8v12h-16.9V110H644V59.8h-16.7v-12H676z"/>
		</g>
		<path class="st1" d="M83,165.9c-45.8,0-83-37.2-83-83s37.2-83,83-83s83,37.2,83,83C166,128.8,128.8,165.9,83,165.9z M83,11.5
			c-39.4,0-71.4,32-71.5,71.4s32,71.4,71.4,71.5s71.4-32,71.5-71.4l0,0C154.4,43.6,122.4,11.6,83,11.5z"/>
		<rect x="51.5" y="12" class="st1" width="12" height="144"/>

			<rect x="-9.3" y="54.9" transform="matrix(0.7038 -0.7104 0.7104 0.7038 -24.6877 62.1045)" class="st1" width="142.9" height="11.5"/>

			<rect x="76.4" y="7.9" transform="matrix(0.7071 -0.7071 0.7071 0.7071 -36.2715 83.0962)" class="st1" width="11.5" height="154.9"/>
	</g>
</g>
</svg>
