<svg xmlns="http://www.w3.org/2000/svg" xmlns:xlink="http://www.w3.org/1999/xlink" viewBox="0 0 102.14 180.9"><defs><style>.cls-1{fill:none;}.cls-2{fill:#3ecf8e;}.cls-3{fill:#fff;}.cls-4{fill:#cef4de;}.cls-5{clip-path:url(#clip-path);}.cls-6{fill:#f5fff8;}</style><clipPath id="clip-path"><rect class="cls-1" x="13.61" y="13.79" width="74.82" height="111.72" rx="12" ry="12"/></clipPath></defs><title>musd</title><g id="Layer_2" data-name="Layer 2"><g id="mUSD"><rect class="cls-2" width="102.14" height="180.9" rx="12" ry="12"/><rect class="cls-3" x="10.15" y="10.02" width="81.75" height="119.27" rx="12" ry="12"/><rect class="cls-4" x="7.5" y="76.38" width="55.34" height="11.52" transform="translate(-51.92 62.14) rotate(-53.88)"/><rect class="cls-4" x="59.21" y="46.14" width="10.97" height="64.19" transform="translate(-33.72 53.34) rotate(-36.22)"/><g class="cls-5"><polygon class="cls-2" points="79.36 11.81 79.36 11.88 51.48 50.25 23.54 11.81 23.52 11.84 23.52 11.81 13.71 11.81 13.71 126.54 23.52 126.54 23.52 30.88 44.54 59.8 51.48 69.35 79.36 30.98 79.36 126.54 89.17 126.54 89.17 11.81 79.36 11.81"/></g><path class="cls-2" d="M30.27,123.41a7.16,7.16,0,0,1-1.92-5.35v-8.62h4.4v8.48q0,3.73,3,3.73t2.93-3.73v-8.48H43v8.62A7.16,7.16,0,0,1,41,123.41a7.36,7.36,0,0,1-5.38,1.89A7.36,7.36,0,0,1,30.27,123.41Z"/><path class="cls-2" d="M47.73,124.83a9,9,0,0,1-2.89-1.24l1.44-3.24a9.34,9.34,0,0,0,2.42,1.11,9.21,9.21,0,0,0,2.71.42q2.53,0,2.53-1.27a1,1,0,0,0-.72-1,13.31,13.31,0,0,0-2.32-.68,22.14,22.14,0,0,1-2.93-.81,4.93,4.93,0,0,1-2-1.39,3.75,3.75,0,0,1-.84-2.58,4.46,4.46,0,0,1,.78-2.56,5.2,5.2,0,0,1,2.32-1.81,9.55,9.55,0,0,1,3.79-.67,13.36,13.36,0,0,1,3,.34,9.26,9.26,0,0,1,2.62,1l-1.35,3.26a9.05,9.05,0,0,0-4.31-1.2,3.61,3.61,0,0,0-1.91.39,1.17,1.17,0,0,0-.6,1,1,1,0,0,0,.71.93,12.82,12.82,0,0,0,2.29.64,21.36,21.36,0,0,1,2.94.81,5.08,5.08,0,0,1,2,1.38,3.68,3.68,0,0,1,.85,2.56,4.37,4.37,0,0,1-.78,2.53,5.3,5.3,0,0,1-2.33,1.81,9.44,9.44,0,0,1-3.77.68A14.39,14.39,0,0,1,47.73,124.83Z"/><path class="cls-2" d="M60.3,109.44h7.35a10.3,10.3,0,0,1,4.53,1,7.2,7.2,0,0,1,3.06,2.71,8.3,8.3,0,0,1,0,8.22A7.19,7.19,0,0,1,72.18,124a10.29,10.29,0,0,1-4.53,1H60.3Zm7.17,12a4.51,4.51,0,0,0,3.21-1.13,4.66,4.66,0,0,0,0-6.26A4.5,4.5,0,0,0,67.47,113H64.7v8.53Z"/><path class="cls-6" d="M19.18,160H14.53v-2.74H27.2V160H22.55V171.8H19.18Z"/><path class="cls-6" d="M31.76,171.07a7.24,7.24,0,0,1-2.84-2.69,7.73,7.73,0,0,1,0-7.7A7.24,7.24,0,0,1,31.76,158a9,9,0,0,1,8.15,0,7.41,7.41,0,0,1,0,13.08,9,9,0,0,1-8.15,0Zm6.41-2.48a4.25,4.25,0,0,0,1.63-1.65,5.2,5.2,0,0,0,0-4.82,4.25,4.25,0,0,0-1.63-1.65,4.87,4.87,0,0,0-4.65,0,4.24,4.24,0,0,0-1.63,1.65,5.2,5.2,0,0,0,0,4.82,4.24,4.24,0,0,0,1.63,1.65,4.87,4.87,0,0,0,4.65,0Z"/><path class="cls-6" d="M51.62,166.09l-2,2v3.68H46.32V157.26h3.34v6.79l6.44-6.79h3.74l-6,6.48,6.38,8.06H56.27Z"/><path class="cls-6" d="M72.95,169.1v2.7H61.69V157.26h11V160H65v3.16h6.75v2.62H65v3.36Z"/><path class="cls-6" d="M89,157.26V171.8H86.19L78.95,163v8.83H75.62V157.26h2.78l7.23,8.83v-8.83Z"/><path class="cls-6" d="M27,152.76l0-8.21-4,6.76H21.54l-4-6.59v8h-3V139.08h2.62l5.12,8.5,5-8.5h2.6l0,13.68Z"/><path class="cls-6" d="M33.23,139.08h3.17v13.68H33.23Z"/><path class="cls-6" d="M52.18,139.08v13.68h-2.6l-6.82-8.31v8.31H39.64V139.08h2.62l6.8,8.31v-8.31Z"/><path class="cls-6" d="M55.43,139.08H58.6v13.68H55.43Z"/><path class="cls-6" d="M74.39,139.08v13.68h-2.6L65,144.45v8.31H61.84V139.08h2.62l6.8,8.31v-8.31Z"/><path class="cls-6" d="M86.88,145.7h2.89v5.55a8.26,8.26,0,0,1-2.58,1.29,10,10,0,0,1-3,.45,8,8,0,0,1-3.83-.91,6.77,6.77,0,0,1-2.67-2.52,7.36,7.36,0,0,1,0-7.29,6.74,6.74,0,0,1,2.69-2.52,8.16,8.16,0,0,1,3.87-.91,8.47,8.47,0,0,1,3.26.61A6.47,6.47,0,0,1,90,141.21l-2,1.88a4.7,4.7,0,0,0-3.54-1.54,4.82,4.82,0,0,0-2.33.55,3.93,3.93,0,0,0-1.58,1.54,4.86,4.86,0,0,0,0,4.55,4,4,0,0,0,1.57,1.55,4.66,4.66,0,0,0,2.3.56,5.13,5.13,0,0,0,2.46-.59Z"/></g></g></svg>