<svg xmlns="http://www.w3.org/2000/svg" viewBox="0 0 652.24 165.94"><defs><style>.cls-1{fill:#fff;}</style></defs><title>Asset 1</title><g id="Layer_2" data-name="Layer 2"><g id="Layer_1-2" data-name="Layer 1"><path class="cls-1" d="M83,165.94a83,83,0,1,1,83-83A83.06,83.06,0,0,1,83,165.94Zm0-154.4A71.43,71.43,0,1,0,154.39,83,71.51,71.51,0,0,0,83,11.54Z"/><rect class="cls-1" x="51.81" y="12.11" width="12" height="144"/><rect class="cls-1" x="-9.31" y="54.91" width="142.91" height="11.54" transform="translate(-24.7 62.12) rotate(-45.27)"/><rect class="cls-1" x="76.37" y="7.86" width="11.54" height="154.91" transform="translate(-36.27 83.07) rotate(-45)"/><path class="cls-1" d="M240.14,84.44,266.45,116h-15l-23-28.42V116H216V53.91h12.41V81.8l23.06-27.89h15Z"/><path class="cls-1" d="M330.56,57.07a29.38,29.38,0,0,1,11.18,11.31,32.84,32.84,0,0,1,4.09,16.41,33.07,33.07,0,0,1-4.09,16.46,29.29,29.29,0,0,1-11.18,11.35,32.84,32.84,0,0,1-31.59,0,29.26,29.26,0,0,1-11.18-11.35,33.08,33.08,0,0,1-4.09-16.46,32.84,32.84,0,0,1,4.09-16.41A29.35,29.35,0,0,1,299,57.07a32.84,32.84,0,0,1,31.59,0Zm-25.39,9.86A16.84,16.84,0,0,0,298.71,74a23.6,23.6,0,0,0-2.33,10.78,23.6,23.6,0,0,0,2.33,10.78,16.84,16.84,0,0,0,6.47,7.08,19.91,19.91,0,0,0,19.18,0,16.85,16.85,0,0,0,6.47-7.08,23.63,23.63,0,0,0,2.33-10.78A23.63,23.63,0,0,0,330.82,74a16.85,16.85,0,0,0-6.47-7.08,19.9,19.9,0,0,0-19.18,0Z"/><path class="cls-1" d="M449,53.91,433.74,116H418.43L406.81,71,395.11,116H379.88L364.66,53.91h13.46l9.5,48.13,12.32-48.13h13.64L426,102l9.5-48.13Z"/><path class="cls-1" d="M507.57,103.54h-24.9l-4.4,12.5H465.15L488,54.61H502.2L525,116H511.88Zm-3.34-9.42L495.07,67.9l-9.15,26.22Z"/><path class="cls-1" d="M556.41,106.53h20.86V116H544V53.91h12.41Z"/><path class="cls-1" d="M634.82,103.54h-24.9l-4.4,12.5H592.4l22.88-61.42h14.17L652.24,116H639.13Zm-3.34-9.42L622.32,67.9l-9.15,26.22Z"/></g></g></svg>
