<svg xmlns="http://www.w3.org/2000/svg" viewBox="0 0 108.79 15.87"><defs><style>.cls-1{fill:#008ef5;}</style></defs><title>kowala</title><g id="Layer_2" data-name="Layer 2"><g id="mUSD"><path class="cls-1" d="M6,7.83l6.56,7.88H8.82L3.09,8.63v7.09H0V.22H3.09v7l5.75-7h3.73Z"/><path class="cls-1" d="M28.56,1a7.33,7.33,0,0,1,2.79,2.82,8.19,8.19,0,0,1,1,4.09,8.25,8.25,0,0,1-1,4.1,7.3,7.3,0,0,1-2.79,2.83,8.19,8.19,0,0,1-7.88,0A7.3,7.3,0,0,1,17.9,12a8.25,8.25,0,0,1-1-4.1,8.19,8.19,0,0,1,1-4.09A7.32,7.32,0,0,1,20.68,1a8.19,8.19,0,0,1,7.88,0ZM22.23,3.47a4.2,4.2,0,0,0-1.61,1.77A5.89,5.89,0,0,0,20,7.92a5.89,5.89,0,0,0,.58,2.69,4.2,4.2,0,0,0,1.61,1.77,5,5,0,0,0,4.78,0,4.2,4.2,0,0,0,1.61-1.77,5.89,5.89,0,0,0,.58-2.69,5.89,5.89,0,0,0-.58-2.69A4.2,4.2,0,0,0,27,3.47a5,5,0,0,0-4.78,0Z"/><path class="cls-1" d="M58.09.22,54.3,15.71H50.48L47.58,4.48,44.66,15.71h-3.8L37.07.22h3.36l2.37,12,3.07-12h3.4l3.09,12,2.37-12Z"/><path class="cls-1" d="M72.71,12.6H66.5l-1.1,3.12H62.13L67.84.4h3.53l5.68,15.32H73.78Zm-.83-2.35L69.59,3.71l-2.28,6.54Z"/><path class="cls-1" d="M84.89,13.34h5.2v2.37h-8.3V.22h3.09Z"/><path class="cls-1" d="M104.44,12.6H98.23l-1.1,3.12H93.87L99.57.4h3.53l5.68,15.32h-3.27Zm-.83-2.35-2.28-6.54L99,10.25Z"/></g></g></svg>