<svg xmlns="http://www.w3.org/2000/svg" viewBox="0 0 130.55 130.55"><defs><style>.cls-1{fill:#008ef5;}.cls-2{fill:#fff;}</style></defs><title>kowala-blue</title><g id="Layer_2" data-name="Layer 2"><g id="mUSD"><rect class="cls-1" width="130.55" height="130.55"/><path class="cls-2" d="M18.77,65.18l6.56,7.88H21.57L15.85,66v7.09H12.75V57.56h3.09v7l5.75-7h3.73Z"/><path class="cls-2" d="M41.32,58.35a7.33,7.33,0,0,1,2.79,2.82,8.74,8.74,0,0,1,0,8.2,7.3,7.3,0,0,1-2.79,2.83,8.19,8.19,0,0,1-7.88,0,7.3,7.3,0,0,1-2.79-2.83,8.74,8.74,0,0,1,0-8.2,7.32,7.32,0,0,1,2.79-2.82,8.19,8.19,0,0,1,7.88,0ZM35,60.81a4.2,4.2,0,0,0-1.61,1.77,6.5,6.5,0,0,0,0,5.38A4.2,4.2,0,0,0,35,69.72a5,5,0,0,0,4.78,0A4.2,4.2,0,0,0,41.38,68a6.5,6.5,0,0,0,0-5.38,4.2,4.2,0,0,0-1.61-1.77,5,5,0,0,0-4.78,0Z"/><path class="cls-2" d="M70.84,57.56,67,73.06H63.23l-2.9-11.24L57.41,73.06h-3.8l-3.8-15.49h3.36l2.37,12,3.07-12H62l3.09,12,2.37-12Z"/><path class="cls-2" d="M85.46,69.94H79.25l-1.1,3.12H74.88l5.71-15.32h3.53l5.68,15.32H86.54Zm-.83-2.35-2.28-6.54-2.28,6.54Z"/><path class="cls-2" d="M97.64,70.69h5.2v2.37h-8.3V57.56h3.09Z"/><path class="cls-2" d="M117.2,69.94H111l-1.1,3.12h-3.27l5.71-15.32h3.53l5.68,15.32h-3.27Zm-.83-2.35-2.28-6.54-2.28,6.54Z"/></g></g></svg>