<?xml version="1.0" encoding="utf-8"?>
<!-- Generator: Adobe Illustrator 22.1.0, SVG Export Plug-In . SVG Version: 6.00 Build 0)  -->
<svg version="1.1" id="Layer_1" xmlns="http://www.w3.org/2000/svg" xmlns:xlink="http://www.w3.org/1999/xlink" x="0px" y="0px"
	 viewBox="0 0 108.8 15.9" style="enable-background:new 0 0 108.8 15.9;" xml:space="preserve">
<style type="text/css">
	.st0{fill:#FFFFFF;}
</style>
<title>kowala</title>
<g id="Layer_2_1_">
	<g id="mUSD">
		<path class="st0" d="M6,7.8l6.6,7.9H8.8L3.1,8.6v7.1H0V0.2h3.1v7l5.8-7h3.7L6,7.8z"/>
		<path class="st0" d="M28.6,1c1.2,0.7,2.1,1.6,2.8,2.8c0.7,1.3,1,2.7,1,4.1c0,1.4-0.3,2.8-1,4.1c-0.7,1.2-1.6,2.2-2.8,2.8
			c-2.5,1.3-5.4,1.3-7.9,0c-1.2-0.7-2.1-1.7-2.8-2.8c-0.7-1.3-1-2.7-1-4.1c0-1.4,0.3-2.8,1-4.1c0.7-1.2,1.6-2.1,2.8-2.8
			C23.1-0.3,26.1-0.3,28.6,1z M22.2,3.5c-0.7,0.4-1.3,1-1.6,1.8C20.2,6.1,20,7,20,7.9c0,0.9,0.2,1.9,0.6,2.7
			c0.4,0.7,0.9,1.3,1.6,1.8c1.5,0.8,3.3,0.8,4.8,0c0.7-0.4,1.3-1,1.6-1.8c0.4-0.8,0.6-1.8,0.6-2.7c0-0.9-0.2-1.9-0.6-2.7
			c-0.3-0.7-0.9-1.3-1.6-1.8C25.5,2.7,23.7,2.7,22.2,3.5L22.2,3.5z"/>
		<path class="st0" d="M58.1,0.2l-3.8,15.5h-3.8L47.6,4.5l-2.9,11.2h-3.8L37.1,0.2h3.4l2.4,12l3.1-12h3.4l3.1,12l2.4-12L58.1,0.2z"
			/>
		<path class="st0" d="M72.7,12.6h-6.2l-1.1,3.1h-3.3l5.7-15.3h3.5L77,15.7h-3.3L72.7,12.6z M71.9,10.2l-2.3-6.5l-2.3,6.5H71.9z"/>
		<path class="st0" d="M84.9,13.3h5.2v2.4h-8.3V0.2h3.1L84.9,13.3z"/>
		<path class="st0" d="M104.4,12.6h-6.2l-1.1,3.1h-3.3l5.7-15.3h3.5l5.7,15.3h-3.3L104.4,12.6z M103.6,10.2l-2.3-6.5L99,10.2H103.6z
			"/>
	</g>
</g>
</svg>
