<svg version="1" xmlns="http://www.w3.org/2000/svg" width="341.333" height="341.333" viewBox="0 0 256.000000 256.000000"><path d="M122.6.8c-.2.1-3.8.5-8.1.7-4.3.3-8.2.8-8.7 1.1-.6.4-2.6.8-4.5 1-1.9.2-4.4.6-5.6 1.1-1.2.4-2.4.8-2.7.8-.3.1-1.2.4-2 .8-.8.3-3.3 1.1-5.5 1.8-2.2.6-6.5 2.3-9.5 3.7-3 1.4-5.7 2.6-6 2.6-.3.1-3.3 1.8-6.8 3.8-20.8 12.4-39.4 32.2-50 53.3C9.8 78.3 3.7 95 4.7 95c.3 0 .1.6-.4 1.2-.6.7-1.1 2-1.1 2.8-.1 1.5-.6 4.1-1.8 9-.4 1.4-.8 9.6-.9 18.2-.2 12.1.2 17.7 1.6 24.5 3.4 16.1 10 33.2 16.4 42.7 1.4 2 2.5 3.9 2.5 4.1 0 2.5 17.5 21.7 25.9 28.5 9.9 7.9 25.7 17.3 33.1 19.5 1.4.4 3.9 1.3 5.5 2 4.5 1.8 9.6 3.3 13.4 4 1.9.3 3.7.7 4 .9 2.9 1.8 31.4 2.6 42.6 1.2 34.7-4.3 69.1-26 89.2-56.4 8.6-12.9 15.1-28.4 18.3-43.2 5-23.6 2.5-52.1-6.5-73.5-8.3-19.6-22.1-38.3-37.9-51.4C196.3 19 172.7 7.3 158.5 4.4c-1.1-.2-4.2-.8-7-1.4-7.9-1.6-28-3.2-28.9-2.2z"/></svg>